<mxfile host="app.diagrams.net" modified="2023-08-15T00:59:00.882Z" agent="Mozilla/5.0 (Windows NT 10.0; Win64; x64) AppleWebKit/537.36 (KHTML, like Gecko) Chrome/115.0.0.0 Safari/537.36" version="21.6.8" etag="ANBDPYHld0CKc4Nl-iPk" type="github">
  <diagram id="9qQRp8wTwhdTKOBizrKU" name="Page-1">
    <mxGraphModel dx="1102" dy="504" grid="1" gridSize="10" guides="1" tooltips="1" connect="1" arrows="1" fold="1" page="1" pageScale="1" pageWidth="3840" pageHeight="2400" math="0" shadow="0">
      <root>
        <mxCell id="0" />
        <mxCell id="1" parent="0" />
        <mxCell id="wih1jJ5DO79m4pdhP88G-1" value="&lt;b&gt;&lt;i&gt;Duck&lt;/i&gt;&lt;/b&gt;" style="swimlane;fontStyle=0;childLayout=stackLayout;horizontal=1;startSize=30;fillColor=none;horizontalStack=0;resizeParent=1;resizeParentMax=0;resizeLast=0;collapsible=1;marginBottom=0;whiteSpace=wrap;html=1;" vertex="1" parent="1">
          <mxGeometry x="350" y="240" width="190" height="246" as="geometry" />
        </mxCell>
        <mxCell id="wih1jJ5DO79m4pdhP88G-2" value="# FlyBehavior" style="text;strokeColor=none;fillColor=none;align=left;verticalAlign=top;spacingLeft=4;spacingRight=4;overflow=hidden;rotatable=0;points=[[0,0.5],[1,0.5]];portConstraint=eastwest;whiteSpace=wrap;html=1;" vertex="1" parent="wih1jJ5DO79m4pdhP88G-1">
          <mxGeometry y="30" width="190" height="26" as="geometry" />
        </mxCell>
        <mxCell id="wih1jJ5DO79m4pdhP88G-3" value="# QuackBehavior" style="text;strokeColor=none;fillColor=none;align=left;verticalAlign=top;spacingLeft=4;spacingRight=4;overflow=hidden;rotatable=0;points=[[0,0.5],[1,0.5]];portConstraint=eastwest;whiteSpace=wrap;html=1;" vertex="1" parent="wih1jJ5DO79m4pdhP88G-1">
          <mxGeometry y="56" width="190" height="26" as="geometry" />
        </mxCell>
        <mxCell id="wih1jJ5DO79m4pdhP88G-15" value="" style="line;strokeWidth=1;fillColor=none;align=left;verticalAlign=middle;spacingTop=-1;spacingLeft=3;spacingRight=3;rotatable=0;labelPosition=right;points=[];portConstraint=eastwest;strokeColor=inherit;" vertex="1" parent="wih1jJ5DO79m4pdhP88G-1">
          <mxGeometry y="82" width="190" height="8" as="geometry" />
        </mxCell>
        <mxCell id="wih1jJ5DO79m4pdhP88G-4" value="+ setFly()" style="text;strokeColor=none;fillColor=none;align=left;verticalAlign=top;spacingLeft=4;spacingRight=4;overflow=hidden;rotatable=0;points=[[0,0.5],[1,0.5]];portConstraint=eastwest;whiteSpace=wrap;html=1;" vertex="1" parent="wih1jJ5DO79m4pdhP88G-1">
          <mxGeometry y="90" width="190" height="26" as="geometry" />
        </mxCell>
        <mxCell id="wih1jJ5DO79m4pdhP88G-16" value="+ setQuack()" style="text;strokeColor=none;fillColor=none;align=left;verticalAlign=top;spacingLeft=4;spacingRight=4;overflow=hidden;rotatable=0;points=[[0,0.5],[1,0.5]];portConstraint=eastwest;whiteSpace=wrap;html=1;" vertex="1" parent="wih1jJ5DO79m4pdhP88G-1">
          <mxGeometry y="116" width="190" height="26" as="geometry" />
        </mxCell>
        <mxCell id="wih1jJ5DO79m4pdhP88G-17" value="+ quack()" style="text;strokeColor=none;fillColor=none;align=left;verticalAlign=top;spacingLeft=4;spacingRight=4;overflow=hidden;rotatable=0;points=[[0,0.5],[1,0.5]];portConstraint=eastwest;whiteSpace=wrap;html=1;" vertex="1" parent="wih1jJ5DO79m4pdhP88G-1">
          <mxGeometry y="142" width="190" height="26" as="geometry" />
        </mxCell>
        <mxCell id="wih1jJ5DO79m4pdhP88G-18" value="+ fly()" style="text;strokeColor=none;fillColor=none;align=left;verticalAlign=top;spacingLeft=4;spacingRight=4;overflow=hidden;rotatable=0;points=[[0,0.5],[1,0.5]];portConstraint=eastwest;whiteSpace=wrap;html=1;" vertex="1" parent="wih1jJ5DO79m4pdhP88G-1">
          <mxGeometry y="168" width="190" height="26" as="geometry" />
        </mxCell>
        <mxCell id="wih1jJ5DO79m4pdhP88G-19" value="&lt;i&gt;+ display()&lt;/i&gt;" style="text;strokeColor=none;fillColor=none;align=left;verticalAlign=top;spacingLeft=4;spacingRight=4;overflow=hidden;rotatable=0;points=[[0,0.5],[1,0.5]];portConstraint=eastwest;whiteSpace=wrap;html=1;" vertex="1" parent="wih1jJ5DO79m4pdhP88G-1">
          <mxGeometry y="194" width="190" height="26" as="geometry" />
        </mxCell>
        <mxCell id="wih1jJ5DO79m4pdhP88G-20" value="+ swim()" style="text;strokeColor=none;fillColor=none;align=left;verticalAlign=top;spacingLeft=4;spacingRight=4;overflow=hidden;rotatable=0;points=[[0,0.5],[1,0.5]];portConstraint=eastwest;whiteSpace=wrap;html=1;" vertex="1" parent="wih1jJ5DO79m4pdhP88G-1">
          <mxGeometry y="220" width="190" height="26" as="geometry" />
        </mxCell>
        <mxCell id="wih1jJ5DO79m4pdhP88G-5" value="&amp;lt;&amp;lt;interface&amp;gt;&amp;gt;&lt;br&gt;&lt;b&gt;FlyBehavior&lt;/b&gt;" style="swimlane;fontStyle=0;childLayout=stackLayout;horizontal=1;startSize=30;fillColor=none;horizontalStack=0;resizeParent=1;resizeParentMax=0;resizeLast=0;collapsible=1;marginBottom=0;whiteSpace=wrap;html=1;" vertex="1" parent="1">
          <mxGeometry x="890" y="240" width="140" height="56" as="geometry" />
        </mxCell>
        <mxCell id="wih1jJ5DO79m4pdhP88G-6" value="+ fly():void" style="text;strokeColor=none;fillColor=none;align=left;verticalAlign=top;spacingLeft=4;spacingRight=4;overflow=hidden;rotatable=0;points=[[0,0.5],[1,0.5]];portConstraint=eastwest;whiteSpace=wrap;html=1;" vertex="1" parent="wih1jJ5DO79m4pdhP88G-5">
          <mxGeometry y="30" width="140" height="26" as="geometry" />
        </mxCell>
        <mxCell id="wih1jJ5DO79m4pdhP88G-9" value="&amp;lt;&amp;lt;interface&amp;gt;&amp;gt;&lt;br&gt;&lt;b&gt;QuackBehavior&lt;/b&gt;" style="swimlane;fontStyle=0;childLayout=stackLayout;horizontal=1;startSize=30;fillColor=none;horizontalStack=0;resizeParent=1;resizeParentMax=0;resizeLast=0;collapsible=1;marginBottom=0;whiteSpace=wrap;html=1;" vertex="1" parent="1">
          <mxGeometry x="650" y="322" width="140" height="56" as="geometry" />
        </mxCell>
        <mxCell id="wih1jJ5DO79m4pdhP88G-10" value="+ quack():void" style="text;strokeColor=none;fillColor=none;align=left;verticalAlign=top;spacingLeft=4;spacingRight=4;overflow=hidden;rotatable=0;points=[[0,0.5],[1,0.5]];portConstraint=eastwest;whiteSpace=wrap;html=1;" vertex="1" parent="wih1jJ5DO79m4pdhP88G-9">
          <mxGeometry y="30" width="140" height="26" as="geometry" />
        </mxCell>
        <mxCell id="wih1jJ5DO79m4pdhP88G-21" value="" style="endArrow=open;endSize=12;dashed=1;html=1;rounded=0;" edge="1" parent="1" source="wih1jJ5DO79m4pdhP88G-2" target="wih1jJ5DO79m4pdhP88G-5">
          <mxGeometry width="160" relative="1" as="geometry">
            <mxPoint x="430" y="292.76" as="sourcePoint" />
            <mxPoint x="590" y="292.76" as="targetPoint" />
          </mxGeometry>
        </mxCell>
        <mxCell id="wih1jJ5DO79m4pdhP88G-24" value="" style="endArrow=open;endSize=12;dashed=1;html=1;rounded=0;" edge="1" parent="1" source="wih1jJ5DO79m4pdhP88G-3" target="wih1jJ5DO79m4pdhP88G-9">
          <mxGeometry width="160" relative="1" as="geometry">
            <mxPoint x="460" y="320" as="sourcePoint" />
            <mxPoint x="550" y="336" as="targetPoint" />
          </mxGeometry>
        </mxCell>
        <mxCell id="wih1jJ5DO79m4pdhP88G-26" value="&lt;b&gt;RealQuack&lt;/b&gt;" style="swimlane;fontStyle=0;childLayout=stackLayout;horizontal=1;startSize=30;fillColor=none;horizontalStack=0;resizeParent=1;resizeParentMax=0;resizeLast=0;collapsible=1;marginBottom=0;whiteSpace=wrap;html=1;" vertex="1" parent="1">
          <mxGeometry x="580" y="430" width="140" height="56" as="geometry" />
        </mxCell>
        <mxCell id="wih1jJ5DO79m4pdhP88G-28" value="" style="endArrow=block;dashed=1;endFill=0;endSize=12;html=1;rounded=0;" edge="1" parent="1" source="wih1jJ5DO79m4pdhP88G-26" target="wih1jJ5DO79m4pdhP88G-9">
          <mxGeometry width="160" relative="1" as="geometry">
            <mxPoint x="620" y="410" as="sourcePoint" />
            <mxPoint x="780" y="410" as="targetPoint" />
          </mxGeometry>
        </mxCell>
        <mxCell id="wih1jJ5DO79m4pdhP88G-29" value="&lt;b&gt;MuteQuack&lt;/b&gt;" style="swimlane;fontStyle=0;childLayout=stackLayout;horizontal=1;startSize=30;fillColor=none;horizontalStack=0;resizeParent=1;resizeParentMax=0;resizeLast=0;collapsible=1;marginBottom=0;whiteSpace=wrap;html=1;" vertex="1" parent="1">
          <mxGeometry x="750" y="430" width="140" height="56" as="geometry" />
        </mxCell>
        <mxCell id="wih1jJ5DO79m4pdhP88G-30" value="" style="endArrow=block;dashed=1;endFill=0;endSize=12;html=1;rounded=0;" edge="1" parent="1" source="wih1jJ5DO79m4pdhP88G-29" target="wih1jJ5DO79m4pdhP88G-9">
          <mxGeometry width="160" relative="1" as="geometry">
            <mxPoint x="678" y="440" as="sourcePoint" />
            <mxPoint x="712" y="388" as="targetPoint" />
          </mxGeometry>
        </mxCell>
      </root>
    </mxGraphModel>
  </diagram>
</mxfile>
